<svg aria-hidden="true" style="position: absolute; width: 0; height: 0; overflow: hidden;" version="1.1" xmlns="http://www.w3.org/2000/svg" xmlns:xlink="http://www.w3.org/1999/xlink">
<defs>
<symbol id="icon-edit" viewBox="0 0 30 32">
<path fill="#fff" style="fill: var(--color1, #fff)" d="M29.867 28.8h-29.867v2.773h29.867v-2.773z"></path>
<path fill="#fff" style="fill: var(--color1, #fff)" d="M20.465 2.035l-15.423 15.423v7.074h7.074l15.423-15.423-7.074-7.074zM11.079 22.033h-3.537v-3.537l12.923-12.923 3.537 3.537-12.923 12.923z"></path>
</symbol>
<symbol id="icon-heart" viewBox="0 0 32 32">
<path fill="#ff6b09" style="fill: var(--color2, #ff6b09)" d="M16 30.72l-2.24-2.24c-8.32-7.36-13.76-12.32-13.76-18.4 0-4.96 3.84-8.8 8.8-8.8 2.72 0 5.44 1.28 7.2 3.36 1.76-2.080 4.48-3.36 7.2-3.36 4.96 0 8.8 3.84 8.8 8.8 0 6.080-5.44 11.040-13.76 18.4l-2.24 2.24z"></path>
</symbol>
<symbol id="icon-delete" viewBox="0 0 32 32">
<path fill="#bbb" style="fill: var(--color3, #bbb)" d="M20.8 0h-19.2v32h28.8v-22.4l-9.6-9.6zM20.8 4.528l5.072 5.072h-5.072v-5.072zM27.2 28.8h-22.4v-25.6h12.8v9.6h9.6v16z"></path>
<path fill="#bbb" style="fill: var(--color3, #bbb)" d="M22.016 15.473l-2.256-2.272-3.728 3.728-3.904-3.904-2.256 2.272 3.888 3.888-3.696 3.712 2.256 2.256 3.712-3.696 3.728 3.728 2.256-2.272-3.728-3.728 3.728-3.712z"></path>
</symbol>
<symbol id="icon-add" viewBox="0 0 32 32">
<path fill="none" stroke="#fff" style="stroke: var(--color1, #fff)" stroke-linejoin="miter" stroke-linecap="butt" stroke-miterlimit="4" stroke-width="4.5714" d="M16 0v32"></path>
<path fill="none" stroke="#fff" style="stroke: var(--color1, #fff)" stroke-linejoin="miter" stroke-linecap="butt" stroke-miterlimit="4" stroke-width="4.5714" d="M0 16h32"></path>
</symbol>
<symbol id="icon-user" viewBox="0 0 29 32">
<path d="M27.874 32h-3.242c0-5.47-4.588-9.919-10.232-9.919s-10.23 4.45-10.23 9.919h-3.242c0-7.26 6.046-13.161 13.474-13.161 7.427 0 13.472 5.901 13.472 13.161z"></path>
<path d="M14.401 17.785c-4.901 0-8.891-3.991-8.891-8.892-0.002-4.903 3.988-8.893 8.891-8.893 4.904 0 8.894 3.988 8.894 8.893s-3.99 8.892-8.894 8.892zM14.401 3.242c-3.116 0-5.65 2.534-5.65 5.65s2.534 5.65 5.65 5.65c3.118 0 5.652-2.534 5.652-5.65s-2.537-5.65-5.652-5.65z"></path>
</symbol>
<symbol id="icon-share" viewBox="0 0 32 32">
<path fill="#878686" style="fill: var(--color4, #878686)" d="M25.436 21.333c-1.623 0-3.079 0.73-4.058 1.878l-9.632-5.955c0.098-0.403 0.151-0.824 0.151-1.256s-0.053-0.853-0.151-1.256l9.632-5.955c0.979 1.148 2.434 1.878 4.058 1.878 2.941 0 5.333-2.393 5.333-5.333s-2.393-5.333-5.333-5.333-5.333 2.393-5.333 5.333c0 0.433 0.053 0.853 0.151 1.256l-9.631 5.955c-0.979-1.148-2.434-1.878-4.058-1.878-2.941 0-5.333 2.393-5.333 5.333s2.393 5.333 5.333 5.333c1.624 0 3.079-0.73 4.058-1.878l9.631 5.955c-0.098 0.403-0.151 0.824-0.151 1.256 0 2.941 2.393 5.333 5.333 5.333s5.333-2.393 5.333-5.333c0-2.941-2.393-5.333-5.333-5.333zM25.436 2.462c1.584 0 2.872 1.288 2.872 2.872s-1.288 2.872-2.872 2.872c-1.583 0-2.872-1.288-2.872-2.872s1.288-2.872 2.872-2.872zM6.564 18.872c-1.583 0-2.872-1.288-2.872-2.872s1.288-2.872 2.872-2.872c1.583 0 2.872 1.288 2.872 2.872s-1.288 2.872-2.872 2.872zM25.436 29.538c-1.583 0-2.872-1.288-2.872-2.872s1.288-2.872 2.872-2.872c1.584 0 2.872 1.288 2.872 2.872s-1.288 2.872-2.872 2.872z"></path>
</symbol>
<symbol id="icon-enter" viewBox="0 0 32 32">
<path d="M3.236 21.654v7.111h25.529v-25.529h-25.529v7.111h-2.916v-6.791c0-1.788 1.448-3.236 3.236-3.236h24.889c1.788 0 3.236 1.448 3.236 3.236v24.889c0 1.788-1.448 3.236-3.235 3.236h-24.889c-1.788 0-3.236-1.448-3.236-3.236v-6.791h2.916zM17.964 14.542l-4.915-4.916 2.063-2.063 8.436 8.436-8.436 8.436-2.063-2.063 4.915-4.916h-17.644v-2.915h17.644z"></path>
</symbol>
<symbol id="icon-search" viewBox="0 0 32 32">
<path fill="#fff" style="fill: var(--color1, #fff)" d="M22.222 19.556h-1.404l-0.498-0.48c1.742-2.027 2.791-4.658 2.791-7.52 0-6.382-5.173-11.556-11.556-11.556s-11.556 5.173-11.556 11.556c0 6.382 5.173 11.556 11.556 11.556 2.862 0 5.493-1.049 7.52-2.791l0.48 0.498v1.404l8.889 8.871 2.649-2.649-8.871-8.889zM11.556 19.556c-4.427 0-8-3.573-8-8s3.573-8 8-8c4.427 0 8 3.573 8 8s-3.573 8-8 8z"></path>
</symbol>
<symbol id="icon-menu" viewBox="0 0 51 32">
<path d="M1.6 32h48v-5.333h-48v5.333zM1.6 18.667h48v-5.333h-48v5.333zM1.6 0v5.333h48v-5.333h-48z"></path>
</symbol>
<symbol id="icon-copyright" viewBox="0 0 32 32">
<path d="M13.12 14.29c0.075-0.495 0.24-0.93 0.45-1.305s0.51-0.69 0.885-0.93c0.36-0.225 0.81-0.33 1.365-0.345 0.345 0.015 0.66 0.075 0.945 0.195 0.3 0.135 0.57 0.315 0.78 0.54s0.375 0.495 0.51 0.795c0.135 0.3 0.195 0.63 0.21 0.96h2.685c-0.030-0.705-0.165-1.35-0.42-1.935s-0.6-1.095-1.050-1.515c-0.45-0.42-0.99-0.75-1.62-0.99s-1.32-0.345-2.085-0.345c-0.975 0-1.83 0.165-2.55 0.51s-1.32 0.795-1.8 1.38c-0.48 0.585-0.84 1.26-1.065 2.040s-0.36 1.59-0.36 2.46v0.405c0 0.87 0.12 1.68 0.345 2.46s0.585 1.455 1.065 2.025c0.48 0.57 1.080 1.035 1.8 1.365s1.575 0.51 2.55 0.51c0.705 0 1.365-0.12 1.98-0.345s1.155-0.54 1.62-0.945c0.465-0.405 0.84-0.87 1.11-1.41s0.435-1.11 0.45-1.725h-2.685c-0.015 0.315-0.090 0.6-0.225 0.87s-0.315 0.495-0.54 0.69c-0.225 0.195-0.48 0.345-0.78 0.45-0.285 0.105-0.585 0.135-0.9 0.15-0.54-0.015-0.99-0.12-1.335-0.345-0.375-0.24-0.675-0.555-0.885-0.93s-0.375-0.825-0.45-1.32c-0.075-0.495-0.12-1.005-0.12-1.5v-0.405c0-0.525 0.045-1.020 0.12-1.515zM16 1c-8.28 0-15 6.72-15 15s6.72 15 15 15c8.28 0 15-6.72 15-15s-6.72-15-15-15zM16 28c-6.615 0-12-5.385-12-12s5.385-12 12-12c6.615 0 12 5.385 12 12s-5.385 12-12 12z"></path>
</symbol>
<symbol id="icon-arrow-btn" viewBox="0 0 64 32">
<path d="M0 0l32 32 32-32h-64z"></path>
</symbol>
<symbol id="icon-arrow-top" viewBox="0 0 53 32">
<path d="M0 29.591l26.667-26.312 26.667 26.312h-53.333z"></path>
</symbol>
<symbol id="icon-arrow-left" viewBox="0 0 21 32">
<path d="M19.76 3.76l-3.76-3.76-16 16 16 16 3.76-3.76-12.213-12.24 12.213-12.24z"></path>
</symbol>
<symbol id="icon-refresh" viewBox="0 0 40 32">
<path d="M8 16h-8l10 10 10-10h-8c0-6.62 5.38-12 12-12s12 5.38 12 12c0 6.62-5.38 12-12 12v4c8.84 0 16-7.16 16-16s-7.16-16-16-16c-8.84 0-16 7.16-16 16z"></path>
</symbol>
<symbol id="icon-full-screen" viewBox="0 0 30 32">
<path  d="M4.22 20.22h-4.22v10.549h10.549v-4.22h-6.33v-6.33zM0 11.78h4.22v-6.33h6.33v-4.22h-10.549v10.549zM25.319 26.549h-6.33v4.22h10.549v-10.549h-4.22v6.33zM18.989 1.231v4.22h6.33v6.33h4.22v-10.549h-10.549z"></path>
</symbol>
<symbol id="icon-contured-heart" viewBox="0 0 37 32">
<path  d="M18.286 29.714c-0.456 0-0.895-0.159-1.237-0.448-1.293-1.089-2.539-2.112-3.639-3.015l-0.006-0.005c-3.224-2.647-6.008-4.933-7.945-7.184-2.165-2.517-3.174-4.904-3.174-7.511 0-2.533 0.902-4.87 2.539-6.581 1.656-1.731 3.929-2.684 6.401-2.684 1.847 0 3.539 0.563 5.028 1.672 0.751 0.56 1.433 1.245 2.033 2.045 0.6-0.799 1.281-1.485 2.033-2.045 1.489-1.11 3.181-1.672 5.028-1.672 2.471 0 4.744 0.953 6.401 2.684 1.637 1.711 2.538 4.048 2.538 6.581 0 2.607-1.008 4.994-3.174 7.511-1.937 2.252-4.721 4.538-7.944 7.184-1.102 0.904-2.35 1.929-3.645 3.021-0.342 0.288-0.782 0.447-1.237 0.447zM11.225 4.092c-1.942 0-3.725 0.747-5.023 2.102-1.317 1.376-2.042 3.279-2.042 5.357 0 2.193 0.846 4.154 2.743 6.359 1.833 2.131 4.56 4.37 7.717 6.962l0.006 0.005c1.104 0.906 2.355 1.934 3.657 3.031 1.31-1.099 2.563-2.128 3.669-3.036 3.157-2.592 5.883-4.831 7.717-6.962 1.896-2.205 2.742-4.166 2.742-6.359 0-2.078-0.725-3.981-2.042-5.357-1.297-1.356-3.081-2.102-5.023-2.102-1.422 0-2.728 0.436-3.881 1.295-1.028 0.766-1.743 1.734-2.163 2.411-0.216 0.348-0.596 0.556-1.016 0.556s-0.801-0.208-1.016-0.556c-0.419-0.677-1.135-1.646-2.163-2.411-1.153-0.859-2.459-1.295-3.881-1.295z"></path>
</symbol>
<symbol id="icon-arrow-right" viewBox="0 0 19 32">
<path d="M1.416 4.984l3.384-3.384 14.4 14.4-14.4 14.4-3.384-3.384 10.992-11.016-10.992-11.016z"></path>
</symbol>
<symbol id="icon-close" viewBox="0 0 32 32">
<path d="M32 3.223l-3.223-3.223-12.777 12.777-12.777-12.777-3.223 3.223 12.777 12.777-12.777 12.777 3.223 3.223 12.777-12.777 12.777 12.777 3.223-3.223-12.777-12.777 12.777-12.777z"></path>
</symbol>
<symbol id="icon-google" viewBox="0 0 18 18">
<path d="M17.8554 7.33402C17.9354 7.33402 18.0002 7.39888 18.0002 7.47889V9C18.0002 9.56932 17.9474 10.126 17.8459 10.666C17.0614 14.8604 13.3661 18.0303 8.93678 17.9998C3.96677 17.9655 -0.010737 13.9498 0.000266918 8.97972C0.0112005 4.01857 4.03652 0 9.00023 0C11.4321 0 13.6386 0.964758 15.2585 2.53188C15.317 2.58845 15.3186 2.68168 15.261 2.7392L13.109 4.89115C13.0536 4.94656 12.9641 4.948 12.9074 4.89396C11.8906 3.92614 10.5149 3.33197 9.00023 3.33197C5.87235 3.33197 3.35358 5.83284 3.33234 8.96066C3.311 12.109 5.85688 14.668 9.00023 14.668C11.5506 14.668 13.7078 12.9832 14.4191 10.666H9.14511C9.0651 10.666 9.00023 10.6011 9.00023 10.5211V7.47886C9.00023 7.39884 9.0651 7.33398 9.14511 7.33398H17.8554V7.33402Z" fill="#2196F3"/>
<path d="M17.855 7.33398H16.7685C16.8485 7.33398 16.9134 7.39885 16.9134 7.47886V8.99997C16.9134 9.56929 16.8605 10.126 16.7591 10.666C16.0106 14.6675 12.6129 17.7365 8.45605 17.9837C8.6151 17.9931 8.7752 17.9986 8.93643 17.9997C13.3658 18.0303 17.061 14.8604 17.8456 10.666C17.947 10.126 17.9999 9.56929 17.9999 8.99997V7.47883C17.9999 7.39885 17.935 7.33398 17.855 7.33398Z" fill="#1E88E5"/>
<path d="M3.85174 6.62632L1.11841 4.65138C2.65185 1.87787 5.60681 0 9.00002 0C11.4319 0 13.6384 0.964758 15.2583 2.53188C15.3168 2.58845 15.3183 2.68168 15.2608 2.7392L13.1088 4.89115C13.0535 4.94645 12.964 4.94817 12.9074 4.89424C11.8906 3.92625 10.5149 3.332 9.00002 3.332C6.71725 3.332 4.74956 4.68144 3.85174 6.62632Z" fill="#F44336"/>
<path d="M3.06274 6.05622L3.85183 6.62635C4.67132 4.85117 6.3823 3.57268 8.41047 3.36297C8.42573 3.36132 8.44039 3.35931 8.45592 3.35784C8.27744 3.34089 8.09656 3.33203 7.9136 3.33203C5.85144 3.33203 4.05426 4.41917 3.06274 6.05622Z" fill="#E53935"/>
<path d="M14.1717 2.53188C14.2302 2.58845 14.2317 2.68168 14.1741 2.73923L12.4275 4.4859C12.5948 4.61317 12.755 4.74929 12.907 4.894C12.9638 4.94803 13.0533 4.94659 13.1087 4.89118L15.2607 2.73923C15.3182 2.68168 15.3167 2.58848 15.2582 2.53188C13.6382 0.964758 11.4317 0 8.99988 0C8.81739 0 8.63633 0.00608203 8.45654 0.0168047C10.6728 0.148816 12.6732 1.08232 14.1717 2.53188Z" fill="#E53935"/>
<path d="M15.602 15.1165C13.9585 16.8901 11.6087 18.0001 8.99997 18.0001C5.4764 18.0001 2.42582 15.9753 0.948486 13.0253L3.73901 11.113C4.5764 13.1966 6.61652 14.6681 8.99997 14.6681C10.4957 14.6681 11.8561 14.0887 12.8687 13.1419L15.602 15.1165Z" fill="#4CAF50"/>
<path d="M3.73913 11.113L2.91626 11.6769C3.87198 13.4574 5.7514 14.6681 7.91355 14.6681C8.09639 14.6681 8.27713 14.6591 8.45555 14.6422C6.30929 14.4376 4.51193 13.036 3.73913 11.113Z" fill="#43A047"/>
<path d="M9.00015 18.0001C11.6089 18.0001 13.9587 16.89 15.6022 15.1165L14.9327 14.6328C13.3895 16.5534 11.0745 17.8275 8.45825 17.9837C8.63755 17.9944 8.81818 18.0001 9.00015 18.0001Z" fill="#43A047"/>
<path d="M3.332 8.99998C3.332 9.74677 3.4765 10.4599 3.73908 11.1129L0.948516 13.0252C0.341543 11.8141 0 10.4469 0 8.99998C0 7.42273 0.405633 5.94034 1.11839 4.65137L3.85172 6.6263C3.51816 7.3481 3.332 8.15251 3.332 8.99998Z" fill="#FFC107"/>
<path d="M2.9161 11.6768L3.73897 11.1129C3.47639 10.4599 3.33189 9.74676 3.33189 8.99997C3.33189 8.15249 3.51805 7.34808 3.85161 6.62628L3.06253 6.05615C2.55012 6.90219 2.25274 7.89497 2.2455 8.96066C2.23882 9.94342 2.48234 10.8688 2.9161 11.6768Z" fill="#FFB300"/>
</symbol>

</defs>
</svg>
